<mxfile host="65bd71144e">
    <diagram id="EdsobK-x61VTXBA5wTKU" name="Page-1">
        <mxGraphModel dx="138" dy="1711" grid="1" gridSize="10" guides="1" tooltips="1" connect="1" arrows="1" fold="1" page="1" pageScale="1" pageWidth="850" pageHeight="1100" math="0" shadow="0">
            <root>
                <mxCell id="0"/>
                <mxCell id="1" parent="0"/>
                <mxCell id="2" style="edgeStyle=none;html=1;exitX=0.5;exitY=1;exitDx=0;exitDy=0;entryX=0.5;entryY=0;entryDx=0;entryDy=0;" parent="1" source="63" target="77" edge="1">
                    <mxGeometry relative="1" as="geometry">
                        <mxPoint x="1112.5" y="69.99999999999989" as="sourcePoint"/>
                        <mxPoint x="1112.5" y="110" as="targetPoint"/>
                        <Array as="points"/>
                    </mxGeometry>
                </mxCell>
                <mxCell id="17" style="edgeStyle=none;html=1;exitX=0.5;exitY=1;exitDx=0;exitDy=0;entryX=0.5;entryY=0;entryDx=0;entryDy=0;" parent="1" source="18" target="64" edge="1">
                    <mxGeometry relative="1" as="geometry">
                        <mxPoint x="1890" y="805" as="targetPoint"/>
                    </mxGeometry>
                </mxCell>
                <mxCell id="18" value="Cập nhật danh sách danh mục" style="rounded=1;whiteSpace=wrap;html=1;arcSize=0;" parent="1" vertex="1">
                    <mxGeometry x="1690" y="865" width="120" height="60" as="geometry"/>
                </mxCell>
                <mxCell id="36" style="edgeStyle=none;html=1;exitX=0.5;exitY=1;exitDx=0;exitDy=0;entryX=0.5;entryY=0;entryDx=0;entryDy=0;" parent="1" source="77" target="78" edge="1">
                    <mxGeometry relative="1" as="geometry">
                        <mxPoint x="1112.5" y="170" as="sourcePoint"/>
                        <mxPoint x="1112.5000000000002" y="220" as="targetPoint"/>
                    </mxGeometry>
                </mxCell>
                <mxCell id="62" style="edgeStyle=none;html=1;entryX=0.5;entryY=0;entryDx=0;entryDy=0;exitX=0.5;exitY=1;exitDx=0;exitDy=0;" parent="1" source="78" target="84" edge="1">
                    <mxGeometry relative="1" as="geometry">
                        <mxPoint x="1113" y="280" as="sourcePoint"/>
                        <mxPoint x="1112.5" y="330" as="targetPoint"/>
                    </mxGeometry>
                </mxCell>
                <mxCell id="52" style="edgeStyle=none;html=1;exitX=1;exitY=0.5;exitDx=0;exitDy=0;entryX=0;entryY=0.5;entryDx=0;entryDy=0;" parent="1" source="79" target="80" edge="1">
                    <mxGeometry relative="1" as="geometry">
                        <mxPoint x="1306.31" y="485" as="sourcePoint"/>
                        <mxPoint x="1377.81" y="485" as="targetPoint"/>
                    </mxGeometry>
                </mxCell>
                <mxCell id="56" style="edgeStyle=none;html=1;exitX=1;exitY=0.5;exitDx=0;exitDy=0;entryX=0;entryY=0.5;entryDx=0;entryDy=0;" parent="1" source="82" target="83" edge="1">
                    <mxGeometry relative="1" as="geometry">
                        <mxPoint x="1466.31" y="725" as="sourcePoint"/>
                        <mxPoint x="1517.81" y="725" as="targetPoint"/>
                    </mxGeometry>
                </mxCell>
                <mxCell id="46" style="edgeStyle=none;html=1;exitX=0.5;exitY=1;exitDx=0;exitDy=0;entryX=0.5;entryY=0;entryDx=0;entryDy=0;entryPerimeter=0;" parent="1" source="84" target="42" edge="1">
                    <mxGeometry relative="1" as="geometry">
                        <mxPoint x="1112.5" y="390" as="sourcePoint"/>
                    </mxGeometry>
                </mxCell>
                <mxCell id="47" style="edgeStyle=none;html=1;exitX=0.5;exitY=1;exitDx=0;exitDy=0;exitPerimeter=0;entryX=0.5;entryY=0;entryDx=0;entryDy=0;entryPerimeter=0;" parent="1" source="42" target="43" edge="1">
                    <mxGeometry relative="1" as="geometry"/>
                </mxCell>
                <mxCell id="53" style="edgeStyle=none;html=1;exitX=1;exitY=0.5;exitDx=0;exitDy=0;exitPerimeter=0;entryX=0;entryY=0.5;entryDx=0;entryDy=0;" parent="1" source="42" target="79" edge="1">
                    <mxGeometry relative="1" as="geometry">
                        <mxPoint x="1229.31" y="485" as="targetPoint"/>
                    </mxGeometry>
                </mxCell>
                <mxCell id="42" value="Thể loại" style="strokeWidth=2;html=1;shape=mxgraph.flowchart.decision;whiteSpace=wrap;" parent="1" vertex="1">
                    <mxGeometry x="1067.5" y="450" width="90" height="70" as="geometry"/>
                </mxCell>
                <mxCell id="54" style="edgeStyle=none;html=1;exitX=1;exitY=0.5;exitDx=0;exitDy=0;exitPerimeter=0;entryX=0;entryY=0.5;entryDx=0;entryDy=0;" parent="1" source="43" target="81" edge="1">
                    <mxGeometry relative="1" as="geometry">
                        <mxPoint x="1229.31" y="725" as="targetPoint"/>
                    </mxGeometry>
                </mxCell>
                <mxCell id="72" style="edgeStyle=none;html=1;exitX=0.5;exitY=1;exitDx=0;exitDy=0;exitPerimeter=0;entryX=0;entryY=0.5;entryDx=0;entryDy=0;" parent="1" source="43" target="64" edge="1">
                    <mxGeometry relative="1" as="geometry">
                        <Array as="points">
                            <mxPoint x="1113" y="1020"/>
                        </Array>
                    </mxGeometry>
                </mxCell>
                <mxCell id="43" value="Danh mục" style="strokeWidth=2;html=1;shape=mxgraph.flowchart.decision;whiteSpace=wrap;" parent="1" vertex="1">
                    <mxGeometry x="1067.5" y="690" width="90" height="70" as="geometry"/>
                </mxCell>
                <mxCell id="51" style="edgeStyle=none;html=1;exitX=0.5;exitY=1;exitDx=0;exitDy=0;entryX=0.5;entryY=0;entryDx=0;entryDy=0;entryPerimeter=0;" parent="1" source="80" target="49" edge="1">
                    <mxGeometry relative="1" as="geometry">
                        <mxPoint x="1427.81" y="515" as="sourcePoint"/>
                    </mxGeometry>
                </mxCell>
                <mxCell id="57" style="edgeStyle=none;html=1;exitX=0.5;exitY=1;exitDx=0;exitDy=0;entryX=0.5;entryY=0;entryDx=0;entryDy=0;entryPerimeter=0;" parent="1" source="83" target="50" edge="1">
                    <mxGeometry relative="1" as="geometry">
                        <mxPoint x="1567.81" y="755" as="sourcePoint"/>
                    </mxGeometry>
                </mxCell>
                <mxCell id="55" style="edgeStyle=none;html=1;exitX=1;exitY=0.5;exitDx=0;exitDy=0;entryX=0;entryY=0.5;entryDx=0;entryDy=0;" parent="1" source="81" target="82" edge="1">
                    <mxGeometry relative="1" as="geometry">
                        <mxPoint x="1306.31" y="725" as="sourcePoint"/>
                        <mxPoint x="1389.31" y="725" as="targetPoint"/>
                    </mxGeometry>
                </mxCell>
                <mxCell id="61" style="edgeStyle=none;html=1;exitX=1;exitY=0.5;exitDx=0;exitDy=0;exitPerimeter=0;entryX=0.5;entryY=0;entryDx=0;entryDy=0;" parent="1" source="49" target="18" edge="1">
                    <mxGeometry relative="1" as="geometry">
                        <Array as="points">
                            <mxPoint x="1750" y="605"/>
                        </Array>
                    </mxGeometry>
                </mxCell>
                <mxCell id="76" style="edgeStyle=none;html=1;exitX=0;exitY=0.5;exitDx=0;exitDy=0;exitPerimeter=0;" parent="1" source="49" edge="1">
                    <mxGeometry relative="1" as="geometry">
                        <mxPoint x="1340" y="490" as="targetPoint"/>
                        <Array as="points">
                            <mxPoint x="1340" y="605"/>
                        </Array>
                    </mxGeometry>
                </mxCell>
                <mxCell id="49" value="Thành công" style="strokeWidth=2;html=1;shape=mxgraph.flowchart.decision;whiteSpace=wrap;" parent="1" vertex="1">
                    <mxGeometry x="1382.81" y="570" width="90" height="70" as="geometry"/>
                </mxCell>
                <mxCell id="59" style="edgeStyle=none;html=1;exitX=0;exitY=0.5;exitDx=0;exitDy=0;exitPerimeter=0;" parent="1" source="50" edge="1">
                    <mxGeometry relative="1" as="geometry">
                        <Array as="points">
                            <mxPoint x="1490" y="895"/>
                        </Array>
                        <mxPoint x="1490" y="730" as="targetPoint"/>
                    </mxGeometry>
                </mxCell>
                <mxCell id="60" style="edgeStyle=none;html=1;exitX=1;exitY=0.5;exitDx=0;exitDy=0;exitPerimeter=0;entryX=0;entryY=0.5;entryDx=0;entryDy=0;" parent="1" source="50" target="18" edge="1">
                    <mxGeometry relative="1" as="geometry"/>
                </mxCell>
                <mxCell id="50" value="Thành công" style="strokeWidth=2;html=1;shape=mxgraph.flowchart.decision;whiteSpace=wrap;" parent="1" vertex="1">
                    <mxGeometry x="1522.81" y="860" width="90" height="70" as="geometry"/>
                </mxCell>
                <mxCell id="63" value="Bắt đầu" style="ellipse;whiteSpace=wrap;html=1;" parent="1" vertex="1">
                    <mxGeometry x="1052.5" y="-10" width="120" height="80" as="geometry"/>
                </mxCell>
                <mxCell id="64" value="Kết thúc" style="ellipse;whiteSpace=wrap;html=1;" parent="1" vertex="1">
                    <mxGeometry x="1690" y="980" width="120" height="80" as="geometry"/>
                </mxCell>
                <mxCell id="65" value="YES" style="text;html=1;strokeColor=none;fillColor=none;align=center;verticalAlign=middle;whiteSpace=wrap;rounded=0;" parent="1" vertex="1">
                    <mxGeometry x="1150" y="695" width="60" height="30" as="geometry"/>
                </mxCell>
                <mxCell id="66" value="YES" style="text;html=1;strokeColor=none;fillColor=none;align=center;verticalAlign=middle;whiteSpace=wrap;rounded=0;" parent="1" vertex="1">
                    <mxGeometry x="1150" y="455" width="60" height="30" as="geometry"/>
                </mxCell>
                <mxCell id="67" value="YES" style="text;html=1;strokeColor=none;fillColor=none;align=center;verticalAlign=middle;whiteSpace=wrap;rounded=0;" parent="1" vertex="1">
                    <mxGeometry x="1612.81" y="865" width="60" height="30" as="geometry"/>
                </mxCell>
                <mxCell id="68" value="NO" style="text;html=1;strokeColor=none;fillColor=none;align=center;verticalAlign=middle;whiteSpace=wrap;rounded=0;" parent="1" vertex="1">
                    <mxGeometry x="1440" y="800" width="60" height="30" as="geometry"/>
                </mxCell>
                <mxCell id="70" value="NO" style="text;html=1;strokeColor=none;fillColor=none;align=center;verticalAlign=middle;whiteSpace=wrap;rounded=0;" parent="1" vertex="1">
                    <mxGeometry x="1067.5" y="860" width="60" height="30" as="geometry"/>
                </mxCell>
                <mxCell id="71" value="NO" style="text;html=1;strokeColor=none;fillColor=none;align=center;verticalAlign=middle;whiteSpace=wrap;rounded=0;" parent="1" vertex="1">
                    <mxGeometry x="1067.5" y="570" width="60" height="30" as="geometry"/>
                </mxCell>
                <mxCell id="73" value="NO" style="text;html=1;strokeColor=none;fillColor=none;align=center;verticalAlign=middle;whiteSpace=wrap;rounded=0;" parent="1" vertex="1">
                    <mxGeometry x="1290" y="540" width="60" height="30" as="geometry"/>
                </mxCell>
                <mxCell id="74" value="YES" style="text;html=1;strokeColor=none;fillColor=none;align=center;verticalAlign=middle;whiteSpace=wrap;rounded=0;" parent="1" vertex="1">
                    <mxGeometry x="1590" y="570" width="60" height="30" as="geometry"/>
                </mxCell>
                <mxCell id="77" value="Mở màn hình thêm&lt;br&gt;giao dịch" style="shape=parallelogram;perimeter=parallelogramPerimeter;whiteSpace=wrap;html=1;fixedSize=1;" vertex="1" parent="1">
                    <mxGeometry x="1037.5" y="110" width="150" height="60" as="geometry"/>
                </mxCell>
                <mxCell id="78" value="Chọn kiểu&lt;br&gt;giao dịch" style="shape=parallelogram;perimeter=parallelogramPerimeter;whiteSpace=wrap;html=1;fixedSize=1;" vertex="1" parent="1">
                    <mxGeometry x="1052.5" y="220" width="120" height="60" as="geometry"/>
                </mxCell>
                <mxCell id="79" value="Chọn thêm&lt;br&gt;thể loại" style="shape=parallelogram;perimeter=parallelogramPerimeter;whiteSpace=wrap;html=1;fixedSize=1;" vertex="1" parent="1">
                    <mxGeometry x="1207.81" y="455" width="120" height="60" as="geometry"/>
                </mxCell>
                <mxCell id="80" value="Nhập tên&lt;br&gt;thể loại" style="shape=parallelogram;perimeter=parallelogramPerimeter;whiteSpace=wrap;html=1;fixedSize=1;" vertex="1" parent="1">
                    <mxGeometry x="1367.81" y="455" width="120" height="60" as="geometry"/>
                </mxCell>
                <mxCell id="81" value="Chọn thể&lt;br&gt;loại có sẵn" style="shape=parallelogram;perimeter=parallelogramPerimeter;whiteSpace=wrap;html=1;fixedSize=1;" vertex="1" parent="1">
                    <mxGeometry x="1215" y="695" width="120" height="60" as="geometry"/>
                </mxCell>
                <mxCell id="82" value="Chọn thêm&lt;br&gt;danh mục" style="shape=parallelogram;perimeter=parallelogramPerimeter;whiteSpace=wrap;html=1;fixedSize=1;" vertex="1" parent="1">
                    <mxGeometry x="1360" y="695" width="120" height="60" as="geometry"/>
                </mxCell>
                <mxCell id="83" value="Nhập tên &lt;br&gt;danh mục" style="shape=parallelogram;perimeter=parallelogramPerimeter;whiteSpace=wrap;html=1;fixedSize=1;" vertex="1" parent="1">
                    <mxGeometry x="1507.81" y="695" width="120" height="60" as="geometry"/>
                </mxCell>
                <mxCell id="84" value="Xác định&lt;br&gt;mục tiêu" style="shape=parallelogram;perimeter=parallelogramPerimeter;whiteSpace=wrap;html=1;fixedSize=1;" vertex="1" parent="1">
                    <mxGeometry x="1052.5" y="340" width="120" height="60" as="geometry"/>
                </mxCell>
            </root>
        </mxGraphModel>
    </diagram>
</mxfile>